<svg width="580" height="399.99999999999994" xmlns="http://www.w3.org/2000/svg">
 <!-- Created with Method Draw - http://github.com/duopixel/Method-Draw/ -->

 <g>
  <title>background</title>
  <rect fill="none" id="canvas_background" height="402" width="582" y="-1" x="-1"/>
  <g display="none" overflow="visible" y="0" x="0" height="100%" width="100%" id="canvasGrid">
   <rect fill="url(#gridpattern)" stroke-width="0" y="0" x="0" height="100%" width="100%"/>
  </g>
 </g>
 <g>
  <title>Layer 1</title>
  <rect stroke="#b70000" rx="37" id="svg_1" height="379.000033" width="389.000065" y="10.49999" x="93.499969" stroke-width="19" fill="#b70000"/>
  <rect stroke="#ffffff" transform="rotate(90 431.74969482421875,79.68849945068364) " id="svg_6" height="25.288313" width="40.000046" y="67.044348" x="411.749667" stroke-width="19" fill="#ffffff"/>
  <rect stroke="#ffffff" id="svg_8" height="206.999038" width="25.999846" y="135.936429" x="420.498031" stroke-width="19" fill="#ffffff"/>
  <rect stroke="#ffffff" transform="rotate(90 288.59326171875006,43.18841552734377) " id="svg_9" height="321.711872" width="3.999997" y="-117.667519" x="286.593252" stroke-width="19" fill="#ffffff"/>
  <rect stroke="#ffffff" transform="rotate(90 290.00000000000006,136.43505859375003) " id="svg_10" height="154.212443" width="3.999997" y="59.328848" x="287.999994" stroke-width="19" fill="#ffffff"/>
  <rect stroke="#ffffff" transform="rotate(90 267.09310913085943,97.68855285644534) " id="svg_11" height="277.711937" width="3.999997" y="-41.167403" x="265.093097" stroke-width="19" fill="#ffffff"/>
  <rect stroke="#ffffff" id="svg_13" height="80.500014" width="23.999869" y="273.102182" x="278.000052" stroke-width="19" fill="#ffffff"/>
  <rect stroke="#ffffff" transform="rotate(90 362.21875,359.06747436523443) " id="svg_14" height="180.960393" width="4.999989" y="268.587272" x="359.718751" stroke-width="19" fill="#ffffff"/>
  <rect stroke="#ffffff" id="svg_15" height="319.998337" width="25.999857" y="41.437047" x="134.500055" stroke-width="19" fill="#ffffff"/>
  <rect stroke="#ffffff" transform="rotate(90 290.00000000000006,235.06835937500003) " id="svg_16" height="153.212448" width="4.999989" y="158.462147" x="287.500009" stroke-width="19" fill="#ffffff"/>
  <rect stroke="#ffffff" id="svg_17" height="64.499869" width="17.499942" y="154.436402" x="220.499698" stroke-width="19" fill="#ffffff"/>
 </g>
</svg>